<svg width="14" height="14" viewBox="0 0 14 14" fill="none" xmlns="http://www.w3.org/2000/svg">
    <path
        d="M5.25 5.83333C5.25 5.48722 5.35264 5.14887 5.54493 4.86109C5.73722 4.5733 6.01055 4.349 6.33033 4.21654C6.65006 4.08409 7.00193 4.04944 7.34143 4.11696C7.68087 4.18448 7.99272 4.35115 8.23742 4.5959C8.48219 4.84064 8.64885 5.15246 8.7164 5.49193C8.78389 5.83139 8.74924 6.18327 8.61677 6.50306C8.48435 6.82278 8.26006 7.09613 7.97224 7.2884C7.68448 7.48072 7.34609 7.58333 7 7.58333V8.16667M12.25 7C12.25 9.89952 9.89952 12.25 7 12.25C4.10051 12.25 1.75 9.89952 1.75 7C1.75 4.10051 4.10051 1.75 7 1.75C9.89952 1.75 12.25 4.10051 12.25 7Z"
        stroke="white" stroke-linecap="round" stroke-linejoin="round" />
    <path
        d="M6.99984 10.5C7.322 10.5 7.58317 10.2388 7.58317 9.91665C7.58317 9.59448 7.322 9.33331 6.99984 9.33331C6.67767 9.33331 6.4165 9.59448 6.4165 9.91665C6.4165 10.2388 6.67767 10.5 6.99984 10.5Z"
        fill="white" />
</svg>